<svg width="50" height="30" viewBox="0 0 50 30" fill="none" xmlns="http://www.w3.org/2000/svg">
<path d="M11.3718 23.6959L9.24188 25.9209L0 16.4277L9.24188 6.93449L11.3718 9.178L4.31408 16.4277L11.3718 23.6959Z" fill="black"/>
<path d="M11.3718 23.6959L9.24188 25.9209L0 16.4277L9.24188 6.93449L11.3718 9.178L4.31408 16.4277L11.3718 23.6959Z" fill="url(#paint0_linear)"/>
<path d="M11.3718 23.6959L9.24188 25.9209L0 16.4277L9.24188 6.93449L11.3718 9.178L4.31408 16.4277L11.3718 23.6959Z" fill="url(#paint1_linear)"/>
<path d="M30.6318 0L33.4116 1.40915L19.5848 30L16.8051 28.5909L30.6318 0Z" fill="black"/>
<path d="M30.6318 0L33.4116 1.40915L19.5848 30L16.8051 28.5909L30.6318 0Z" fill="url(#paint2_linear)"/>
<path d="M30.6318 0L33.4116 1.40915L19.5848 30L16.8051 28.5909L30.6318 0Z" fill="url(#paint3_linear)"/>
<path d="M45.6859 16.4277L38.6101 9.178L40.7581 6.93449L50 16.4277L40.7581 25.9209L38.6101 23.6959L45.6859 16.4277Z" fill="black"/>
<path d="M45.6859 16.4277L38.6101 9.178L40.7581 6.93449L50 16.4277L40.7581 25.9209L38.6101 23.6959L45.6859 16.4277Z" fill="url(#paint4_linear)"/>
<path d="M45.6859 16.4277L38.6101 9.178L40.7581 6.93449L50 16.4277L40.7581 25.9209L38.6101 23.6959L45.6859 16.4277Z" fill="url(#paint5_linear)"/>
<defs>
<linearGradient id="paint0_linear" x1="0" y1="0" x2="51.4196" y2="27.3289" gradientUnits="userSpaceOnUse">
<stop stop-color="#E7305E"/>
<stop offset="1" stop-opacity="0"/>
</linearGradient>
<linearGradient id="paint1_linear" x1="0" y1="0" x2="51.4196" y2="27.3289" gradientUnits="userSpaceOnUse">
<stop stop-opacity="0"/>
<stop offset="1" stop-color="#2E3060"/>
</linearGradient>
<linearGradient id="paint2_linear" x1="0" y1="0" x2="51.4196" y2="27.3289" gradientUnits="userSpaceOnUse">
<stop stop-color="#E7305E"/>
<stop offset="1" stop-opacity="0"/>
</linearGradient>
<linearGradient id="paint3_linear" x1="0" y1="0" x2="51.4196" y2="27.3289" gradientUnits="userSpaceOnUse">
<stop stop-opacity="0"/>
<stop offset="1" stop-color="#2E3060"/>
</linearGradient>
<linearGradient id="paint4_linear" x1="0" y1="0" x2="51.4196" y2="27.3289" gradientUnits="userSpaceOnUse">
<stop stop-color="#E7305E"/>
<stop offset="1" stop-opacity="0"/>
</linearGradient>
<linearGradient id="paint5_linear" x1="0" y1="0" x2="51.4196" y2="27.3289" gradientUnits="userSpaceOnUse">
<stop stop-opacity="0"/>
<stop offset="1" stop-color="#2E3060"/>
</linearGradient>
</defs>
</svg>
